<?xml version="1.0"?>
<!DOCTYPE svg PUBLIC "-//W3C//DTD SVG 1.1//EN" "http://www.w3.org/Graphics/SVG/1.1/DTD/svg11.dtd">
<?xml-stylesheet type="text/css" href="../css/svg.css"?>
<svg width="512" height="512" xmlns="http://www.w3.org/2000/svg">
  <rect id="googleIcon" x="10" y="10" rx="64" ry="64" width="492" height="492" stroke="#ffffff" stroke-width="10" />
  <polygon id="svg_1" fill="#ffffff"
    points="407,242.5 407,188.5 380,188.5 380,242.5 326,242.5 326,269.5 380,269.5 380,323.5 407,323.5 407,269.5 461,269.5 461,242.5 " />
  <path id="svg_2" fill="#ffffff"
    d="m177.5,230.699997l0,50.599991l71.5737,0c-10.448898,29.449188 -38.582504,50.600006 -71.5737,50.600006c-41.846191,0 -75.899994,-34.053802 -75.899994,-75.899994c0,-41.846191 34.053802,-75.899994 75.899994,-75.899994c18.140106,0 35.597107,6.50209 49.157898,18.317184l33.244202,-38.15239c-22.770004,-19.835205 -52.016785,-30.764801 -82.4021,-30.764801c-69.75209,0 -126.499992,56.747894 -126.499992,126.5s56.747902,126.5 126.499992,126.5s126.5,-56.747894 126.5,-126.5l0,-25.300003l-126.5,0z" />
</svg>