<?xml version="1.0"?>
<!DOCTYPE svg PUBLIC "-//W3C//DTD SVG 1.1//EN" 
    "http://www.w3.org/Graphics/SVG/1.1/DTD/svg11.dtd">

<svg xmlns="http://www.w3.org/2000/svg" version="1.1" 
    width="1500" height="600">
    <rect x="5" y="5" width="90" height="90" rx="10" ry="10" stroke="white" stroke-width="3" fill="#0f1a2a"/>
    <text x="50" y="50" fill="white">Esc</text>
    <!-- <path d="M20 55 h10" stroke="white" stroke-width="3"/>
    <path d="M40 55 h5" stroke="white" stroke-width="3"/>
    <path d="M55 55 h5" stroke="white" stroke-width="3"/>
    <path d="M70 55 h10" stroke="white" stroke-width="3"/>

    <path d="M20 65 h5" stroke="white" stroke-width="3"/>
    <path d="M35 65 h10" stroke="white" stroke-width="3"/>
    <path d="M55 65 h10" stroke="white" stroke-width="3"/>
    <path d="M75 65 h5" stroke="white" stroke-width="3"/>
    
    <path d="M20 75 h10" stroke="white" stroke-width="3"/>
    <path d="M40 75 h20" stroke="white" stroke-width="3"/>
    <path d="M70 75 h10" stroke="white" stroke-width="3"/>

    <path d="M10 25 Q50 -2, 90 25" stroke="white" stroke-width="3" fill="none"/>
    <path d="M25 30 Q50 15, 75 30" stroke="white" stroke-width="3" fill="none"/>
    <path d="M40 35 Q50 30, 60 35" stroke="white" stroke-width="3" fill="none"/> -->
    
</svg>