<svg id="圖層_1" data-name="圖層 1" xmlns="http://www.w3.org/2000/svg" viewBox="0 0 311 71"><defs><style>.cls-1{fill:#fff;}</style></defs><title>工作區域 1</title><path class="cls-1" d="M21.82,26.73,20,28.84a55.85,55.85,0,0,1,5.59.76q2.46.48,4.56,1a37.5,37.5,0,0,1,3.67,1.22q5.55,2.31,5.55,6.47a7.18,7.18,0,0,1-2.32,4.95,22.15,22.15,0,0,1-6,4.33,40.35,40.35,0,0,1-7.62,3,27.47,27.47,0,0,1-7.12,1.07c-3.57,0-6.34-.66-8.34-2a6.19,6.19,0,0,1-3-5.43A11.92,11.92,0,0,1,6.8,38.62a65.76,65.76,0,0,1,5.66-8,9.32,9.32,0,0,1-4.07-.86,2.25,2.25,0,0,1-1.2-2,1.57,1.57,0,0,1,.46-1.23,2.74,2.74,0,0,1,1.23-.61q.76-.19,3-.48l5.64-.7a46,46,0,0,1,6.87-7.08,12.55,12.55,0,0,1,6.53-2.73,5.66,5.66,0,0,1,.61,0c.22,0,.34.06.34.17a3.45,3.45,0,0,1-.8,1.13c-.52.61-1.38,1.58-2.56,2.92s-2.59,2.91-4.2,4.74a84.77,84.77,0,0,0,10.81-2A19.52,19.52,0,0,0,41.43,19a4.45,4.45,0,0,0,2.15-3.52,3.53,3.53,0,0,0-2.29-3.41,17.55,17.55,0,0,0-7-1.06,39.1,39.1,0,0,0-6,.53q-3.36.53-6.08,1.2A50.22,50.22,0,0,0,17.4,14.2c-1.41.51-2.12.87-2.12,1.11q0,.11.21.21c1.15.42,1.72.77,1.72,1.05s-1.76,1.1-5.27,2.17a31.46,31.46,0,0,1-7.1,1.6A1.16,1.16,0,0,1,3.53,19c0-1,1-2.89,2.83-5.58S10,9.06,11.52,8.31a29.66,29.66,0,0,1,3.76-1.23q3-.84,6.48-1.62C24.12,5,26.51,4.52,29,4.16a46.15,46.15,0,0,1,6.47-.52q6.64,0,10,2.37a7.1,7.1,0,0,1,3.34,6,8.15,8.15,0,0,1-1.53,4.67,15.56,15.56,0,0,1-4.77,4.26A34.19,34.19,0,0,1,34,24.41,73.23,73.23,0,0,1,21.82,26.73Zm-3.73,4.54c-1.22,1.45-2.3,2.74-3.25,3.85a21,21,0,0,0-2,2.71,4,4,0,0,0-.62,2.09,3.76,3.76,0,0,0,1.74,3,8.17,8.17,0,0,0,5,1.32,21.43,21.43,0,0,0,6.45-1.07,19.5,19.5,0,0,0,5.77-2.79c1.56-1.15,2.34-2.31,2.34-3.49a2.88,2.88,0,0,0-1.72-2.49,19,19,0,0,0-5.24-1.74Q23,31.9,18.09,31.27Z"/><path class="cls-1" d="M47.94,40.69v.88a4.72,4.72,0,0,0,1,3.23A3.36,3.36,0,0,0,51.63,46a8.84,8.84,0,0,0,3.57-.8A19.68,19.68,0,0,0,58.87,43q1.83-1.34,4.47-3.58v2.14a43.64,43.64,0,0,1-7.46,7.33,11.85,11.85,0,0,1-7.06,2.55,5.88,5.88,0,0,1-5-2.43A10.78,10.78,0,0,1,42,42.38a13.24,13.24,0,0,1,1.72-6.7,25.47,25.47,0,0,1,5.63-6.34,21.4,21.4,0,0,1,5.31-3.45,11.9,11.9,0,0,1,4.71-1.16,4.12,4.12,0,0,1,2.62.76,2.7,2.7,0,0,1,1,2.26,7.35,7.35,0,0,1-1.65,4.42,19.27,19.27,0,0,1-5,4.36A51.86,51.86,0,0,1,47.94,40.69Zm.35-2.28a20,20,0,0,0,5.41-3.06A15.54,15.54,0,0,0,57,31.85a5.48,5.48,0,0,0,1.08-2.44c0-.54-.25-.81-.74-.81a5.07,5.07,0,0,0-2.06.81,16.72,16.72,0,0,0-2.88,2.11,15.3,15.3,0,0,0-2.62,3.05A9.9,9.9,0,0,0,48.29,38.41Z"/><path class="cls-1" d="M67.45,33.13a42.76,42.76,0,0,1,10.37-7.2q5-2.36,7.77-2.36a1.94,1.94,0,0,1,1.37.62,4.57,4.57,0,0,1,1,1.42,3.27,3.27,0,0,1,.37,1.19,1,1,0,0,1-.49.94,9.69,9.69,0,0,1-1.72.72l.63,1.44c.26.58.46,1.06.6,1.42a2.79,2.79,0,0,1,.21,1q0,.84-1.71,3.15c-1.13,1.53-1.93,2.66-2.39,3.39a5,5,0,0,0-.68,2.67c0,1.73.79,2.6,2.39,2.6s4.2-1.53,7.7-4.6v2.14Q84,51.52,80.14,51.52a2.15,2.15,0,0,1-2-.9A4.87,4.87,0,0,1,77.61,48a25.15,25.15,0,0,1,2-8c-3.42,3.79-6,6.5-7.63,8.1s-3,2.41-4.11,2.41c-.52,0-1.16-.45-1.93-1.34a12.72,12.72,0,0,1-2.06-3.46,11.22,11.22,0,0,1-.9-4.41,10.25,10.25,0,0,1,.32-2.76,6.62,6.62,0,0,1,1.23-2.27A31.86,31.86,0,0,1,67.45,33.13Zm16.84-3.86q-9.15,4.19-13,7.1c-2.59,1.94-3.88,4-3.88,6a3.83,3.83,0,0,0,.39,1.84,1.15,1.15,0,0,0,1,.73,3.88,3.88,0,0,0,1.37-.5,27.61,27.61,0,0,0,6.75-5.67Q80,35.27,84.29,29.27Z"/><path class="cls-1" d="M104.89,21.18h1.51a19.45,19.45,0,0,1,3.38-4.73,5,5,0,0,1,3.44-1.39c1.29,0,1.94.3,1.94.88a7.18,7.18,0,0,1-1.52,2.29,29.65,29.65,0,0,0-2.28,3.13l2.13.24,1.45.18a56,56,0,0,1-5,7.63l-1.65-.13-1.36-.1-1.67-.13c-1.26,2-2.32,3.87-3.18,5.47a30.9,30.9,0,0,0-2,4.41,11.71,11.71,0,0,0-.68,3.8c0,1.62.64,2.43,1.93,2.43a7,7,0,0,0,3.5-1.43q2.16-1.42,5.78-4.37v2.35Q101.13,52,96.59,52A3.1,3.1,0,0,1,94,50.78a5,5,0,0,1-1-3.16,11,11,0,0,1,.54-3.1c.37-1.19,1-3,1.95-5.41l-.93.83-.81.73c-.24.23-.51.46-.79.71s-.56.5-.84.75V39.71q3.69-3.09,8.93-10.87l-1-.05-1.09,0a12.93,12.93,0,0,0-3.09.28c-.28.07-.54.15-.79.23a1.82,1.82,0,0,1-.51.13c-.09,0-.14-.07-.14-.21A7.76,7.76,0,0,1,96,25.71a12.69,12.69,0,0,1,2.2-2.91,5.4,5.4,0,0,1,2.53-1.29A20.56,20.56,0,0,1,104.89,21.18Z"/><path class="cls-1" d="M127.35,39.43V42A35.83,35.83,0,0,1,121,48.62c-2,1.49-3.64,2.23-5,2.23a4.54,4.54,0,0,1-4.28-3,15.46,15.46,0,0,1-1.41-6.61,11.69,11.69,0,0,1,.28-2.62,10,10,0,0,1,.67-2.06c.26-.54.74-1.38,1.44-2.53q5-7.77,9.14-7.77c1.43,0,2.14.55,2.14,1.65a8.31,8.31,0,0,1-1.38,3.52,15.91,15.91,0,0,1-2.48,3.41,56.3,56.3,0,0,0-4,4.11,4.13,4.13,0,0,0-.93,2.64,2.71,2.71,0,0,0,.94,2.11,3.61,3.61,0,0,0,2.47.84,7.06,7.06,0,0,0,3.63-1.21A43.7,43.7,0,0,0,127.35,39.43ZM125,23.71a2.55,2.55,0,0,1-1.67-.67,2.11,2.11,0,0,1-.79-1.68A5.87,5.87,0,0,1,124,17.91,4,4,0,0,1,127,16a2.52,2.52,0,0,1,1.76.65,2.44,2.44,0,0,1,.7,1.88,5.6,5.6,0,0,1-1.44,3.34A4,4,0,0,1,125,23.71Z"/><path class="cls-1" d="M150.73,33.06q-6.18,6.9-6.18,9.6c0,1,.41,1.51,1.23,1.51a5.34,5.34,0,0,0,2.65-1.07q1.63-1.08,5.12-3.81v2.42q-5,4.92-7.67,7.1c-1.78,1.46-3.23,2.18-4.36,2.18q-2.88,0-2.88-3.79A7.35,7.35,0,0,1,139,45a15.31,15.31,0,0,1,1-2.27c.41-.78,1-1.91,1.88-3.37s1.82-3.13,2.92-5a22.07,22.07,0,0,0-5,4,37.91,37.91,0,0,0-3.34,3.6c-.91,1.14-1.89,2.4-2.94,3.8a30,30,0,0,1-2.28,2.81,2.1,2.1,0,0,1-1.46.72c-.75,0-1.44-.79-2.07-2.36a14.43,14.43,0,0,1-1-5.48,8.13,8.13,0,0,1,.44-3,19.77,19.77,0,0,1,1.74-3.1,34.16,34.16,0,0,1,4.18-5.46,5,5,0,0,1,3.38-1.74,3.66,3.66,0,0,1,1.81.38,1.3,1.3,0,0,1,.68,1.2,1.58,1.58,0,0,1-.21.74,5,5,0,0,1-.47.7q-.27.32-1.11,1.23-5.56,6.15-5.56,8c0,.68.23,1,.67,1,.28,0,.83-.45,1.64-1.35L137,36.53a53.79,53.79,0,0,1,4.53-4.59,48.73,48.73,0,0,1,6-4.61,5.92,5.92,0,0,1,3.09-1.3c.38,0,.75.52,1.11,1.55a9.42,9.42,0,0,1,.55,3.13C152.25,31.22,151.74,32,150.73,33.06Z"/><path class="cls-1" d="M181.28,41.78l-11.67,9.6a67.89,67.89,0,0,1-9,12.71q-4.05,4.2-6,4.2c-.71,0-1.06-.44-1.06-1.3q0-2.53,2.57-6.47a25.81,25.81,0,0,1,2.34-3A32.19,32.19,0,0,1,161,55c.79-.72,1.82-1.61,3.11-2.67l2.64-2.2q3.51-7.17,5.06-11c-2.2,2.34-4.12,4.27-5.76,5.77a28,28,0,0,1-4.52,3.46,7.46,7.46,0,0,1-3.71,1.21q-1.8,0-3.3-2.86A12.48,12.48,0,0,1,153,40.8a7.74,7.74,0,0,1,.65-3,15,15,0,0,1,2-3.3,27,27,0,0,1,3.54-3.6,38.06,38.06,0,0,1,5-3.61c3.64-2.27,6.46-3.41,8.48-3.41q2.25,0,2.25,1.65,0,2.3-4.89,4.47a31.6,31.6,0,0,0-5.92,3.44A22.33,22.33,0,0,0,159.4,38a7.48,7.48,0,0,0-1.81,4.34,2.29,2.29,0,0,0,.46,1.51,1.44,1.44,0,0,0,1.19.56,5,5,0,0,0,2.81-1.12,54.58,54.58,0,0,0,4.68-4,40.5,40.5,0,0,0,3.74-4.21q2.34-2.9,3.87-4.43a4.25,4.25,0,0,1,2.76-1.52,1.54,1.54,0,0,1,1.14.43,1.74,1.74,0,0,1,.44,1.29,13.39,13.39,0,0,1-1.28,4.69q-1.29,3.07-4.62,10.07l8.5-6.18Z"/><path class="cls-1" d="M238.48,23.85l1.09,1.09a30.91,30.91,0,0,1-5,5.27c-1.44,1.11-2.5,1.66-3.18,1.66s-.85-.51-.85-1.51q0-3.76,5-11.61,4.18-6.78,4.18-7.55c0-.45-.18-.67-.56-.67-.65,0-2.31,1.47-5,4.43s-5.91,7.12-9.8,12.51q-6.62,9-9.07,12.87a57.79,57.79,0,0,1,7.68,1.18q3,.72,8.72,2.34a55.76,55.76,0,0,0,8.42,1.89c-2.21,2.51-3.72,4.22-4.56,5.12a6.83,6.83,0,0,1-1.91,1.63,5.49,5.49,0,0,1-3.13.06c-1.38-.27-3.58-.79-6.58-1.57s-5.8-1.42-8.42-1.93a36.76,36.76,0,0,0-7.15-.77,10.45,10.45,0,0,0-3.15.42c-.88.28-2.09.74-3.65,1.39a10.53,10.53,0,0,1-3.29,1c-.91,0-1.37-.37-1.37-1.12a3,3,0,0,1,.46-1.44c.77-1.25,1.52-2.43,2.25-3.55a10.19,10.19,0,0,1,2.32-2.64,9.13,9.13,0,0,1,3.55-1.48,29.62,29.62,0,0,1,6.11-.56q5.74-8.79,10.69-15.59t9-11.48a54.89,54.89,0,0,1,7.12-7.08q3.06-2.42,4.85-2.41a2.67,2.67,0,0,1,2,.7,2.67,2.67,0,0,1,.7,2Q245.9,10.6,238.48,23.85Z"/><path class="cls-1" d="M260.84,39.43V42a35.83,35.83,0,0,1-6.36,6.63c-2,1.49-3.64,2.23-5,2.23a4.56,4.56,0,0,1-4.29-3,15.61,15.61,0,0,1-1.4-6.61A11.69,11.69,0,0,1,244,38.6a10,10,0,0,1,.67-2.06c.25-.54.74-1.38,1.44-2.53q5-7.77,9.14-7.77c1.43,0,2.14.55,2.14,1.65A8.22,8.22,0,0,1,256,31.41a15.6,15.6,0,0,1-2.47,3.41,56.3,56.3,0,0,0-4,4.11,4.14,4.14,0,0,0-.94,2.64,2.72,2.72,0,0,0,1,2.11,3.6,3.6,0,0,0,2.46.84,7.06,7.06,0,0,0,3.64-1.21A44.55,44.55,0,0,0,260.84,39.43Zm-2.39-15.72a2.55,2.55,0,0,1-1.67-.67,2.11,2.11,0,0,1-.79-1.68,5.81,5.81,0,0,1,1.48-3.45,4,4,0,0,1,3.06-1.9,2.52,2.52,0,0,1,1.76.65,2.47,2.47,0,0,1,.7,1.88,5.6,5.6,0,0,1-1.44,3.34A4,4,0,0,1,258.45,23.71Z"/><path class="cls-1" d="M284.22,33.06Q278,40,278,42.66c0,1,.41,1.51,1.23,1.51a5.34,5.34,0,0,0,2.65-1.07c1.09-.72,2.79-2,5.12-3.81v2.42q-5,4.92-7.67,7.1C277.59,50.27,276.14,51,275,51q-2.88,0-2.88-3.79a7.35,7.35,0,0,1,.35-2.22,14.32,14.32,0,0,1,1-2.27c.41-.78,1-1.91,1.88-3.37s1.81-3.13,2.92-5a21.86,21.86,0,0,0-5,4,37.91,37.91,0,0,0-3.34,3.6c-.92,1.14-1.89,2.4-2.94,3.8a30,30,0,0,1-2.28,2.81,2.1,2.1,0,0,1-1.46.72c-.75,0-1.44-.79-2.08-2.36a14.63,14.63,0,0,1-.94-5.48,8.13,8.13,0,0,1,.44-3,19.77,19.77,0,0,1,1.74-3.1,34.16,34.16,0,0,1,4.18-5.46,5,5,0,0,1,3.37-1.74,3.63,3.63,0,0,1,1.81.38,1.29,1.29,0,0,1,.69,1.2,1.58,1.58,0,0,1-.21.74,4.33,4.33,0,0,1-.48.7c-.17.21-.54.62-1.1,1.23q-5.56,6.15-5.56,8c0,.68.23,1,.67,1,.28,0,.83-.45,1.64-1.35s1.85-2.09,3.12-3.55A55.54,55.54,0,0,1,275,31.94a48.73,48.73,0,0,1,6-4.61,5.92,5.92,0,0,1,3.09-1.3c.38,0,.75.52,1.11,1.55a9.41,9.41,0,0,1,.54,3.13C285.73,31.22,285.23,32,284.22,33.06Z"/><path class="cls-1" d="M292.45,40.69v.88a4.72,4.72,0,0,0,1,3.23A3.36,3.36,0,0,0,296.14,46a8.84,8.84,0,0,0,3.57-.8A19.68,19.68,0,0,0,303.38,43q1.83-1.34,4.47-3.58v2.14a43.64,43.64,0,0,1-7.46,7.33,11.85,11.85,0,0,1-7.06,2.55,5.88,5.88,0,0,1-5-2.43,10.78,10.78,0,0,1-1.83-6.64,13.25,13.25,0,0,1,1.73-6.7,25.2,25.2,0,0,1,5.62-6.34,21.4,21.4,0,0,1,5.31-3.45,12,12,0,0,1,4.71-1.16,4.12,4.12,0,0,1,2.62.76,2.71,2.71,0,0,1,1,2.26,7.3,7.3,0,0,1-1.66,4.42,19.27,19.27,0,0,1-5,4.36A51.44,51.44,0,0,1,292.45,40.69Zm.35-2.28a20,20,0,0,0,5.41-3.06,15.85,15.85,0,0,0,3.33-3.5,5.55,5.55,0,0,0,1.07-2.44c0-.54-.25-.81-.74-.81a5.07,5.07,0,0,0-2.06.81,17.11,17.11,0,0,0-2.88,2.11,15.63,15.63,0,0,0-2.62,3.05A10.06,10.06,0,0,0,292.8,38.41Z"/></svg>