<?xml version="1.0" encoding="utf-8"?>
<!-- Generator: Adobe Illustrator 19.0.0, SVG Export Plug-In . SVG Version: 6.00 Build 0)  -->
<svg version="1.1" id="圖層_1" xmlns="http://www.w3.org/2000/svg" xmlns:xlink="http://www.w3.org/1999/xlink" x="0px" y="0px"
	 viewBox="0 0 40 40" style="enable-background:new 0 0 40 40;" xml:space="preserve">
<style type="text/css">
	.st0{fill:none;stroke:#FFFFFF;stroke-miterlimit:10;}
</style>
<g id="XMLID_1534_">
	<g id="XMLID_39_">
		<circle id="XMLID_43_" class="st0" cx="20" cy="16.2" r="5.9"/>
		<g id="XMLID_40_">
			<path id="XMLID_42_" class="st0" d="M20,22.2c5.5,0,10.2,3.7,11.7,8.8C34.4,28.1,36,24.2,36,20c0-8.8-7.2-16-16-16
				C11.2,4,4,11.2,4,20c0,4.2,1.6,8.1,4.3,10.9C9.8,25.9,14.5,22.2,20,22.2z"/>
			<path id="XMLID_41_" class="st0" d="M20,36c4.6,0,8.8-2,11.7-5.1c-1.5-5.1-6.1-8.8-11.7-8.8c-5.5,0-10.2,3.7-11.7,8.8
				C11.2,34,15.4,36,20,36z"/>
		</g>
	</g>
</g>
</svg>
