<?xml version="1.0"?>
<!DOCTYPE svg PUBLIC "-//W3C//DTD SVG 1.1//EN" 
    "http://www.w3.org/Graphics/SVG/1.1/DTD/svg11.dtd">

<svg xmlns="http://www.w3.org/2000/svg" version="1.1" 
    width="100" height="100">
    <ellipse cx="50" cy="30" rx="40" ry="10" stroke="white" stroke-width="3" fill="#3f4a5a"/>
    <path d="M10 30 V70 A40 10,0 0 0 33 79.457 V39.457 A40 10,0 0 1 10 30" stroke="white" stroke-width="3" fill="#0f1a2a"/>
    <path d="M33 39.457 V79.457 A40 10,0 0 0 67 79.457 V39.457 A40 10,0 0 1 33 39.457" stroke="white" stroke-width="3" fill="#3f4a5a"/>
    <path d="M67 39.457 V79.457 A40 10,0 0 0 90 70 V30 A40 10,0 0 1 67 39.457" stroke="white" stroke-width="3" fill="#0f1a2a"/>
</svg>