<?xml version="1.0"?>
<!DOCTYPE svg PUBLIC "-//W3C//DTD SVG 1.1//EN" 
    "http://www.w3.org/Graphics/SVG/1.1/DTD/svg11.dtd">

<svg xmlns="http://www.w3.org/2000/svg" version="1.1" 
    width="100" height="100">
    <ellipse cx="25" cy="25" rx="15" ry="3.75" stroke="white" stroke-width="3" fill="none"/>
    <path d="M10 25 v15 A15 3.75,0 0 0 40 40 v-15 A15 3.75,0 0 1 10 25" stroke="white" stroke-width="3" fill="none"/>
    <ellipse cx="65" cy="40" rx="25" ry="8.25" stroke="white" stroke-width="3" fill="none"/>
    <path d="M40 40 v25 A25 8.25,0 0 0 90 65 v-25 A25 8.25,0 0 1 40 40" stroke="white" stroke-width="3" fill="none"/>
    <!-- <path d="M10 30 V70 A40 10,0 0 0 33 79.457 V39.457 A40 10,0 0 1 10 30" stroke="white" stroke-width="3" fill="none"/>
    <path d="M33 39.457 V79.457 A40 10,0 0 0 67 79.457 V39.457 A40 10,0 0 1 33 39.457" stroke="white" stroke-width="3" fill="none"/>
    <path d="M67 39.457 V79.457 A40 10,0 0 0 90 70 V30 A40 10,0 0 1 67 39.457" stroke="white" stroke-width="3" fill="none"/> -->
</svg>