<?xml version="1.0"?>
<!DOCTYPE svg PUBLIC "-//W3C//DTD SVG 1.1//EN" 
    "http://www.w3.org/Graphics/SVG/1.1/DTD/svg11.dtd">

<svg xmlns="http://www.w3.org/2000/svg" version="1.1" 
    width="100" height="100">
    <!-- <rect width="98" height="98" stroke="white" stroke-width="5" /> -->
    <!-- <path d="M2.5 50 H18 Q19 50, 20 50 L29 46 Q30 45, 31 46 L40 64 Q41 65, 42 64 L51 19 Q52 18, 53 19 L62 82 Q63 83, 64 82 L73 51 Q74 50, 75 50 H97.5 V10 Q97.5 2.5, 90 2.5 H10 Q2.5 2.5, 2.5 10 Z" fill="#4d99cc" stroke="white" stroke-width="5" />
    <path d="M2.5 50 H18 Q19 50, 20 50 L29 46 Q30 45, 31 46 L40 64 Q41 65, 42 64 L51 19 Q52 18, 53 19 L62 82 Q63 83, 64 82 L73 51 Q74 50, 75 50 H97.5 V90 Q97.5 97.5, 90 97.5 H10 Q2.5 97.5, 2.5 90 Z" fill="#0F1A2A" stroke="white" stroke-width="5" /> -->
    <path d="M0 49 V51" fill="none" stroke="white" stroke-width="3" />
    <path d="M5 49 V51" fill="none" stroke="white" stroke-width="3" />
    <path d="M10 49 V51" fill="none" stroke="white" stroke-width="3" />
    <path d="M15 49 V51" fill="none" stroke="white" stroke-width="3" />
    <path d="M20 47 V51" fill="none" stroke="white" stroke-width="3" />
    <path d="M25 45 V53" fill="none" stroke="white" stroke-width="3" />
    <path d="M30 40 V70" fill="none" stroke="white" stroke-width="3" />
    <path d="M35 45 V60" fill="none" stroke="white" stroke-width="3" />
    <path d="M40 35 V55" fill="none" stroke="white" stroke-width="3" />
    <path d="M45 25 V53" fill="none" stroke="white" stroke-width="3" />
    <path d="M50 15 V50" fill="none" stroke="white" stroke-width="3" />
    <path d="M55 35 V53" fill="none" stroke="white" stroke-width="3" />
    <path d="M60 45 V55" fill="none" stroke="white" stroke-width="3" />
    <path d="M65 50 V85" fill="none" stroke="white" stroke-width="3" />
    <path d="M70 48 V65" fill="none" stroke="white" stroke-width="3" />
    <path d="M75 45 V55" fill="none" stroke="white" stroke-width="3" />
    <path d="M80 48 V52" fill="none" stroke="white" stroke-width="3" />
    <path d="M85 49 V51" fill="none" stroke="white" stroke-width="3" />
    <path d="M90 49 V51" fill="none" stroke="white" stroke-width="3" />
    <path d="M95 49 V51" fill="none" stroke="white" stroke-width="3" />
    <path d="M100 49 V51" fill="none" stroke="white" stroke-width="3" />
    
</svg>