<?xml version="1.0"?>
<!DOCTYPE svg PUBLIC "-//W3C//DTD SVG 1.1//EN" "http://www.w3.org/Graphics/SVG/1.1/DTD/svg11.dtd">

<svg xmlns="http://www.w3.org/2000/svg" version="1.1" width="100" height="100">
  <!-- <rect width="98" height="98" stroke="white" stroke-width="5" /> -->
  <!-- <path d="M2.5 50 H18 Q19 50, 20 50 L29 46 Q30 45, 31 46 L40 64 Q41 65, 42 64 L51 19 Q52 18, 53 19 L62 82 Q63 83, 64 82 L73 51 Q74 50, 75 50 H97.5 V10 Q97.5 2.5, 90 2.5 H10 Q2.5 2.5, 2.5 10 Z" fill="#4d99cc" stroke="white" stroke-width="5" />
    <path d="M2.5 50 H18 Q19 50, 20 50 L29 46 Q30 45, 31 46 L40 64 Q41 65, 42 64 L51 19 Q52 18, 53 19 L62 82 Q63 83, 64 82 L73 51 Q74 50, 75 50 H97.5 V90 Q97.5 97.5, 90 97.5 H10 Q2.5 97.5, 2.5 90 Z" fill="#0F1A2A" stroke="white" stroke-width="5" /> -->
  <path
    d="M0 50 H19 Q20 50, 21 50 L30 46 Q31 45, 32 46 L41 64 Q42 65, 43 64 L52 19 Q53 18, 54 19 L63 82 Q64 83, 65 82 L74 51 Q75 50, 76 50 H100"
    fill="none" stroke="white" stroke-width="3" />
</svg>