<?xml version="1.0" encoding="utf-8"?>
<!-- Generator: Adobe Illustrator 19.0.0, SVG Export Plug-In . SVG Version: 6.00 Build 0)  -->
<svg version="1.1" id="圖層_1" xmlns="http://www.w3.org/2000/svg" xmlns:xlink="http://www.w3.org/1999/xlink" x="0px" y="0px"
	 viewBox="-705.5 477 476.5 127.5" style="enable-background:new -705.5 477 476.5 127.5;" xml:space="preserve">
<style type="text/css">
	.st0{fill:#0F1A2A;}
	.st1{opacity:0.8;fill:#3F4A5A;}
	.st2{fill:none;stroke:#FFFFFF;stroke-width:5;}
	.st3{fill:none;stroke:#0F1A2A;stroke-width:0.5;stroke-miterlimit:10;}
</style>
<path class="st0" d="M-620.1,542l-9,31c-0.7,0.7-1.3,0.7-2,0l-9-63c-0.7-0.7-1.3-0.7-2,0l-9,45c-0.7,0.7-1.3,0.7-2,0l-9-18
	c-0.7-0.7-1.3-0.7-2,0l-9,4c-0.7,0-1.3,0-2,0h-19v40c0,5.5,4.5,10,10,10h80c5.5,0,10-4.5,10-10v-40h-24
	C-618.8,541-619.5,541.3-620.1,542z"/>
<path class="st1" d="M-604.1,491h-80c-5.5,0-10,4.5-10,10v40h19c0.7,0,1.3,0,2,0l9-4c0.7-0.7,1.3-0.7,2,0l9,18c0.7,0.7,1.3,0.7,2,0
	l9-45c0.7-0.7,1.3-0.7,2,0l9,63c0.7,0.7,1.3,0.7,2,0l9-31c0.7-0.7,1.3-1,2-1h24v-40C-594.1,495.5-598.6,491-604.1,491z"/>
<path class="st2" d="M-694.1,541h18c0.7,0,1.3,0,2,0l9-4c0.7-0.7,1.3-0.7,2,0l9,18c0.7,0.7,1.3,0.7,2,0l9-45c0.7-0.7,1.3-0.7,2,0
	l9,63c0.7,0.7,1.3,0.7,2,0l9-31c0.7-0.7,1.3-1,2-1h25"/>
<g>
	<g>
		<path class="st0" d="M-565.1,512.8h11.7c6.9,0,12.5,1.8,12.5,8.3c0,3-1.7,6.2-4.4,7.3v0.2c3.4,0.9,5.9,3.4,5.9,7.9
			c0,6.8-5.8,9.9-13.1,9.9h-12.7V512.8z M-553.7,526.1c3.4,0,5-1.5,5-3.8c0-2.4-1.6-3.4-5-3.4h-3.3v7.2H-553.7z M-553,540.1
			c3.9,0,5.9-1.4,5.9-4.3c0-2.7-1.9-3.8-5.9-3.8h-4v8.1H-553z"/>
		<path class="st0" d="M-533.8,512.8h21.3v6.7h-13.2v6.2h11.2v6.8h-11.2v7.1h13.7v6.8h-21.8V512.8z"/>
		<path class="st0" d="M-489.6,538.6h-9.9l-1.9,7.7h-8.2l10.4-33.5h9.6l10.4,33.5h-8.5L-489.6,538.6z M-491.1,532.4l-0.7-2.8
			c-0.9-3.3-1.8-7.3-2.7-10.8h-0.2c-0.8,3.5-1.7,7.4-2.6,10.8l-0.7,2.8H-491.1z"/>
		<path class="st0" d="M-473.1,519.5h-9.1v-6.7h26.2v6.7h-9.1v26.9h-8.1V519.5z"/>
		<path class="st0" d="M-450.7,512.8h8.1v33.5h-8.1V512.8z"/>
		<path class="st0" d="M-434.9,512.8h8.2l8.3,16l3.3,7.4h0.2c-0.5-3.6-1.1-8.4-1.1-12.4v-11.1h7.7v33.5h-8.2l-8.3-16.2l-3.3-7.3
			h-0.2c0.4,3.7,1,8.3,1,12.4v11.1h-7.7V512.8z"/>
		<path class="st0" d="M-402,529.7c0-11.2,7.5-17.6,16.5-17.6c4.9,0,8.4,2.1,10.7,4.4l-4.3,5.1c-1.6-1.5-3.4-2.6-6.2-2.6
			c-5,0-8.5,3.9-8.5,10.4c0,6.7,3,10.5,9.2,10.5c1.2,0,2.5-0.3,3.2-0.9v-5.4h-5.3v-6.6h12.5v15.7c-2.3,2.3-6.5,4.1-11.2,4.1
			C-394.7,546.9-402,541.1-402,529.7z"/>
		<path class="st0" d="M-357.2,512.8h8.1v26.8h13v6.8h-21.1V512.8z"/>
		<path class="st0" d="M-330.2,512.8h8.1v33.5h-8.1V512.8z"/>
		<path class="st0" d="M-314.5,512.8h8.2l8.3,16l3.3,7.4h0.2c-0.5-3.6-1.1-8.4-1.1-12.4v-11.1h7.7v33.5h-8.2l-8.3-16.2l-3.3-7.3
			h-0.2c0.4,3.7,1,8.3,1,12.4v11.1h-7.7V512.8z"/>
		<path class="st0" d="M-280,512.8h21.3v6.7H-272v6.2h11.2v6.8H-272v7.1h13.7v6.8H-280V512.8z"/>
	</g>
</g>
<g>
	<g>
		<path class="st0" d="M-559.1,560.5c1.6,0,3,0.5,4,1.6c1.1,1.1,1.6,2.4,1.6,4c0,1.6-0.5,2.9-1.6,4s-2.4,1.6-4,1.6
			c-1.6,0-2.9-0.5-4-1.6c-1.1-1.1-1.6-2.4-1.6-3.9c0-1,0.2-2,0.7-2.8c0.5-0.9,1.2-1.6,2-2.1S-560.1,560.5-559.1,560.5z
			 M-559.1,561.5c-0.8,0-1.5,0.2-2.2,0.6s-1.3,1-1.7,1.7c-0.4,0.7-0.6,1.5-0.6,2.3c0,1.3,0.4,2.3,1.3,3.2c0.9,0.9,1.9,1.3,3.2,1.3
			c0.8,0,1.6-0.2,2.3-0.6c0.7-0.4,1.3-0.9,1.6-1.6c0.4-0.7,0.6-1.5,0.6-2.3c0-0.8-0.2-1.6-0.6-2.3s-0.9-1.2-1.7-1.6
			C-557.5,561.8-558.3,561.5-559.1,561.5z"/>
		<path class="st0" d="M-543.9,571.4v-10.6h0.2l7.1,8.2v-8.2h1v10.6h-0.2l-7-8.1v8.1H-543.9z"/>
		<path class="st0" d="M-525.6,560.8h1.1v9.6h4.1v1h-5.2V560.8z"/>
		<path class="st0" d="M-511.5,560.8h1.1v10.6h-1.1V560.8z"/>
		<path class="st0" d="M-500.6,571.4v-10.6h0.2l7.1,8.2v-8.2h1v10.6h-0.2l-7-8.1v8.1H-500.6z"/>
		<path class="st0" d="M-482.2,560.8h6.1v1h-5v3.3h5v1h-5v4.2h5v1h-6.1V560.8z"/>
		<path class="st0" d="M-455.3,571.4v-10.6h2.2c1.6,0,2.7,0.1,3.5,0.4c1,0.4,1.8,1,2.4,1.9c0.6,0.9,0.9,2,0.9,3.2
			c0,1.1-0.2,2-0.7,2.8c-0.5,0.8-1.1,1.4-1.8,1.8s-1.8,0.6-3.1,0.6H-455.3z M-454.3,570.4h1.2c1.5,0,2.5-0.1,3.1-0.3
			c0.8-0.3,1.4-0.7,1.9-1.4s0.7-1.5,0.7-2.5c0-1-0.2-1.9-0.7-2.6c-0.5-0.7-1.2-1.2-2.1-1.5c-0.7-0.2-1.8-0.3-3.3-0.3h-0.8V570.4z"/>
		<path class="st0" d="M-436.9,560.8h2.1c1.2,0,2,0,2.4,0.1c0.6,0.1,1.1,0.5,1.5,0.9s0.6,1.1,0.6,1.8c0,0.6-0.1,1.1-0.4,1.5
			s-0.7,0.8-1.2,1c-0.5,0.2-1.2,0.3-2.1,0.3l3.8,4.9h-1.3l-3.8-4.9h-0.6v4.9h-1.1V560.8z M-435.8,561.8v3.6l1.8,0
			c0.7,0,1.2-0.1,1.6-0.2c0.3-0.1,0.6-0.4,0.8-0.6c0.2-0.3,0.3-0.6,0.3-1c0-0.4-0.1-0.7-0.3-1s-0.4-0.5-0.8-0.6
			c-0.3-0.1-0.8-0.2-1.6-0.2H-435.8z"/>
		<path class="st0" d="M-420.5,560.8h1.1v6.4c0,0.8,0,1.2,0,1.4c0.1,0.4,0.2,0.8,0.4,1.1c0.2,0.3,0.5,0.5,0.9,0.7s0.8,0.3,1.2,0.3
			c0.4,0,0.7-0.1,1-0.2s0.6-0.4,0.8-0.6c0.2-0.3,0.4-0.6,0.5-1c0.1-0.3,0.1-0.8,0.1-1.7v-6.4h1.1v6.4c0,1-0.1,1.7-0.3,2.3
			s-0.6,1.1-1.1,1.5c-0.6,0.4-1.2,0.7-2,0.7c-0.9,0-1.6-0.2-2.2-0.6c-0.6-0.4-1-1-1.2-1.6c-0.1-0.4-0.2-1.2-0.2-2.2V560.8z"/>
		<path class="st0" d="M-403.9,571.4l1.5-10.6h0.2l4.3,8.7l4.3-8.7h0.2l1.5,10.6h-1l-1.1-7.6l-3.8,7.6h-0.3l-3.8-7.7l-1,7.7H-403.9z
			"/>
		<path class="st0" d="M-371.4,571.4l1.5-10.6h0.2l4.3,8.7l4.3-8.7h0.2l1.5,10.6h-1l-1.1-7.6l-3.8,7.6h-0.3l-3.8-7.7l-1,7.7H-371.4z
			"/>
		<path class="st0" d="M-345.5,560.8l5,10.6h-1.1l-1.7-3.5h-4.6l-1.7,3.5h-1.2l5-10.6H-345.5z M-345.7,563l-1.8,3.9h3.6L-345.7,563z
			"/>
		<path class="st0" d="M-321.6,562.8l-0.8,0.6c-0.5-0.6-1-1.1-1.7-1.4c-0.6-0.3-1.4-0.5-2.1-0.5c-0.8,0-1.6,0.2-2.4,0.6
			c-0.7,0.4-1.3,1-1.7,1.6c-0.4,0.7-0.6,1.5-0.6,2.3c0,1.3,0.4,2.4,1.3,3.2c0.9,0.9,2,1.3,3.4,1.3c1.5,0,2.7-0.6,3.7-1.8l0.8,0.6
			c-0.5,0.7-1.2,1.2-2,1.6c-0.8,0.4-1.7,0.6-2.7,0.6c-1.9,0-3.3-0.6-4.4-1.9c-0.9-1-1.4-2.3-1.4-3.8c0-1.6,0.5-2.9,1.6-3.9
			c1.1-1.1,2.5-1.6,4.1-1.6c1,0,1.9,0.2,2.7,0.6C-322.8,561.5-322.1,562-321.6,562.8z"/>
		<path class="st0" d="M-312.1,560.8h1.1v4.5h5.4v-4.5h1.1v10.6h-1.1v-5.1h-5.4v5.1h-1.1V560.8z"/>
		<path class="st0" d="M-294.7,560.8h1.1v10.6h-1.1V560.8z"/>
		<path class="st0" d="M-283.8,571.4v-10.6h0.2l7.1,8.2v-8.2h1v10.6h-0.2l-7-8.1v8.1H-283.8z"/>
		<path class="st0" d="M-265.4,560.8h6.1v1h-5v3.3h5v1h-5v4.2h5v1h-6.1V560.8z"/>
	</g>
</g>
<g>
	<g>
		<path class="st0" d="M-251.9,499h1.2c0.7,0,1.2,0,1.4,0.1c0.4,0.1,0.7,0.3,0.9,0.5c0.2,0.3,0.3,0.6,0.3,1c0,0.3-0.1,0.6-0.2,0.9
			c-0.2,0.3-0.4,0.5-0.7,0.6c-0.3,0.1-0.7,0.2-1.2,0.2l2.2,2.9h-0.8l-2.2-2.9h-0.4v2.9h-0.6V499z M-251.3,499.6v2.1l1.1,0
			c0.4,0,0.7,0,0.9-0.1s0.4-0.2,0.5-0.4c0.1-0.2,0.2-0.4,0.2-0.6c0-0.2-0.1-0.4-0.2-0.6s-0.3-0.3-0.4-0.4c-0.2-0.1-0.5-0.1-0.9-0.1
			H-251.3z"/>
	</g>
</g>
<circle class="st3" cx="-250.4" cy="501.8" r="6.1"/>
</svg>
