<svg xmlns="http://www.w3.org/2000/svg" viewBox="0 0 100 100" x="0px" y="0px">
<title>SCHOOL_ICONS_100</title>

<path d="M93.9,65.91l0-.14a16.31,16.31,0,0,0-1.58-5.39L82.35,33.16a5.72,5.72,0,0,0-4.2-4.08,7.27,7.27,0,0,0-6.78,2A5.71,5.71,0,0,0,70,36.75l0,.17L56.49,23.33c-3.17-3.17-7.08-2.58-9.31-.36a6.31,6.31,0,0,0-1.69,3l-3.26-3.26a6.42,6.42,0,0,0-9.05-.33,6.83,6.83,0,0,0-2.37,5.81,6.28,6.28,0,0,0-6.32,5.71l-3.68-2.79a6.38,6.38,0,0,0-6.46-1,7.12,7.12,0,0,0-4.24,5.58,6.37,6.37,0,0,0,2.52,5.87,6.07,6.07,0,0,0-2.87,2.07c-1.92,2.53-1.84,6.61,2,9.54l2.81,2.13a6.15,6.15,0,0,0-3.18,2.3c-1.76,2.49-1.78,6.59,2.31,9.7L45.93,91.81a16.43,16.43,0,0,0,21.19-1.08,16.49,16.49,0,0,0,15.06-4.47l7-7a16.49,16.49,0,0,0,4.79-12.69A1.51,1.51,0,0,0,93.9,65.91ZM28,32.7a3.21,3.21,0,0,1,2.67-1.48,3.72,3.72,0,0,1,1.65.41l0,0,.33.37A6.15,6.15,0,0,0,28,36.28,3.19,3.19,0,0,1,28,32.7ZM13.09,36.16A4.13,4.13,0,0,1,15.52,33a3.36,3.36,0,0,1,3.49.58l7.79,5.9,1.56,1.18c.05.13.1.26.16.39a9.06,9.06,0,0,0,1.75,2.4l2.47,2.48a6.24,6.24,0,0,0-1.73.58,6.1,6.1,0,0,0-2.9,3.17l-8.47-6.42-.15-.14-4.91-3.72A3.36,3.36,0,0,1,13.09,36.16ZM47.75,89.42,15.54,65c-2.52-1.91-2.66-4.18-1.67-5.58a3.21,3.21,0,0,1,2.67-1.35,5.18,5.18,0,0,1,2.8.94L33.69,69.9a1.5,1.5,0,1,0,1.81-2.39L21.78,57.1,21.67,57l-.22-.16-7.85-6c-2.41-1.82-2.46-4-1.44-5.33s3.09-1.86,5.47-.09l.11.11,10,7.59a8.58,8.58,0,0,0,2.52,4.55l15,15,9.88,9.88A50.23,50.23,0,0,0,60.84,88a16.7,16.7,0,0,0,2.73,1.6l.19.09A13.48,13.48,0,0,1,47.75,89.42ZM87,77.18l-7,7a13.51,13.51,0,0,1-19.09,0L32.39,55.56a5.35,5.35,0,0,1-1.73-3.34,3.14,3.14,0,0,1,1.71-3.07,4.19,4.19,0,0,1,4.51.91l0,0L49.7,62.88a1.5,1.5,0,0,0,2.12-2.12L32.39,41.3A5.52,5.52,0,0,1,31,39.18a3.16,3.16,0,0,1,1.24-3.8c1.13-.71,3-.78,4.94,1.14,0,0,0,0,0,.07L56.61,56a1.5,1.5,0,0,0,2.12-2.12L39.34,34.46a.76.76,0,0,0-.06-.08L34.93,30a3.23,3.23,0,0,1-.41-.48,3.46,3.46,0,0,1,.64-4.88,3.44,3.44,0,0,1,5,.19l23.81,23.8A1.5,1.5,0,0,0,66,46.54L49.66,30.16c-1.87-1.87-1.53-3.89-.36-5.07s3.19-1.52,5.07.36L72.09,43.17a1.5,1.5,0,0,0,2.5-1.48l-1.68-5.78a2.68,2.68,0,0,1,.63-2.77A4.3,4.3,0,0,1,77.44,32,2.75,2.75,0,0,1,79.5,34.1l10,27.39.07.15a13.32,13.32,0,0,1,1.33,4.58,1.4,1.4,0,0,0,0,.14s0,.07,0,.11A13.5,13.5,0,0,1,87,77.18Z"/>
<path d="M11.09,8.6A1.5,1.5,0,1,0,9,10.74L19.28,20.9a1.5,1.5,0,0,0,2.11-2.13Z"/>
<path d="M15.67,26.33a1.5,1.5,0,0,0,.4-2.95l-9.5-2.63a1.5,1.5,0,0,0-.8,2.89l9.5,2.63A1.5,1.5,0,0,0,15.67,26.33Z"/>
<path d="M25.21,4.34A1.5,1.5,0,0,0,23.84,6l.74,9.33a1.5,1.5,0,0,0,1.49,1.38h.12A1.5,1.5,0,0,0,27.57,15l-.74-9.33A1.5,1.5,0,0,0,25.21,4.34Z"/>
<!-- <text x="0" y="115" fill="#000000" font-size="5px" font-weight="bold" font-family="'Helvetica Neue', Helvetica, Arial-Unicode, Arial, Sans-serif">Created by Rena</text><text x="0" y="120" fill="#000000" font-size="5px" font-weight="bold" font-family="'Helvetica Neue', Helvetica, Arial-Unicode, Arial, Sans-serif">from the Noun Project</text> -->
</svg>