<?xml version="1.0"?>
<!DOCTYPE svg PUBLIC "-//W3C//DTD SVG 1.1//EN" 
    "http://www.w3.org/Graphics/SVG/1.1/DTD/svg11.dtd">

<svg xmlns="http://www.w3.org/2000/svg" version="1.1" 
    width="100" height="100">
    <ellipse cx="50" cy="20" rx="25" ry="8.25" stroke="white" stroke-width="3" fill="#3f4a5a"/>
    <path d="M25 20 l-5 33 l15 33 A15 3.75,0 0 0 65 86 l15 -33 l-5 -33 A25 8.25,0 0 1 25 20" stroke="white" stroke-width="3" fill="#0f1a2a"/>
    <!-- <path d="M25 22 A40 10,100 0 0 35 88 A15 3.75,0 0 0 65 88 A40 10,60 0 0 75 22" stroke="white" stroke-width="3" fill="#0f1a2a"/> -->
    <!-- <path d="M33 39.457 V79.457 A40 10,0 0 0 67 79.457 V39.457 A40 10,0 0 1 33 39.457" stroke="white" stroke-width="3" fill="#3f4a5a"/>
    <path d="M67 39.457 V79.457 A40 10,0 0 0 90 70 V30 A40 10,0 0 1 67 39.457" stroke="white" stroke-width="3" fill="#0f1a2a"/> -->
</svg>